<?xml version="1.0" encoding="utf-8"?>
<svg xmlns="http://www.w3.org/2000/svg">
<symbol id="icon-lab" viewBox="0 0 297 297">
<path d="M294.081,72.683L224.316,2.918c-3.891-3.889-10.2-3.891-14.095,0l-23.256,23.255c-1.869,1.869-2.919,4.404-2.919,7.047
	s1.05,5.178,2.919,7.047l4.581,4.581L12.552,223.843C4.458,231.936,0,242.698,0,254.144c0,11.447,4.458,22.208,12.552,30.303
	c8.094,8.094,18.857,12.552,30.303,12.552s22.208-4.458,30.302-12.552l178.995-178.995l4.581,4.581
	c1.87,1.869,4.404,2.919,7.047,2.919c2.643,0,5.179-1.05,7.047-2.919l23.255-23.256C297.973,82.886,297.973,76.575,294.081,72.683z
	 M59.062,270.353c-4.329,4.33-10.085,6.714-16.207,6.714s-11.879-2.384-16.208-6.714c-4.33-4.329-6.714-10.086-6.714-16.208
	c0-6.123,2.384-11.878,6.714-16.207l120.856-120.856l32.416,32.416L59.062,270.353z M194.013,135.402l-32.416-32.416l44.044-44.044
	l32.416,32.416L194.013,135.402z M263.779,88.892L208.108,33.22l9.161-9.161l55.671,55.671L263.779,88.892z"/>
<g>
</g>
<g>
</g>
<g>
</g>
<g>
</g>
<g>
</g>
<g>
</g>
<g>
</g>
<g>
</g>
<g>
</g>
<g>
</g>
<g>
</g>
<g>
</g>
<g>
</g>
<g>
</g>
<g>
</g>

</symbol></svg>